<svg xmlns="http://www.w3.org/2000/svg" viewBox="0 0 512 512">
  <rect width="512" height="512" rx="112" fill="#FFFFFF"/>
  <g transform="translate(100, 100) scale(0.6)">
    <!-- Book icon -->
    <path fill="#2E2A25" d="M464 48c-67.61 0-131.29 18.14-183.68 50.46a36.43 36.43 0 0 0-14.7 20.35l-1.66 6.32a6.38 6.38 0 0 1-5.91 4.79h-.1a6.38 6.38 0 0 1-5.91-4.79l-1.66-6.32a36.43 36.43 0 0 0-14.7-20.35C183.29 66.14 119.61 48 52 48a20 20 0 0 0-20 20v352a20 20 0 0 0 20 20c74.2 0 144.75 22.18 198.81 62.43a20 20 0 0 0 23.9 0C328.76 462.18 399.31 440 473.51 440a20 20 0 0 0 20-20V68a20 20 0 0 0-20-20zM236 414.73A331 331 0 0 0 72 393.18V100.82a329 329 0 0 1 164 22.3v291.61zM456 393.18a331 331 0 0 0-164 21.55V123.12a329 329 0 0 1 164-22.3v292.36z"/>
  </g>
</svg>
